<svg
							width="14"
							height="26"
							viewBox="0 0 14 26"
							fill="none"
							xmlns="http://www.w3.org/2000/svg"
						>
							<path
								d="M12.8292 25.6644C13.061 25.6643 13.2876 25.5951 13.4798 25.4656C13.6721 25.3362 13.8214 25.1523 13.9086 24.9375C13.9959 24.7227 14.0171 24.4868 13.9695 24.2599C13.922 24.0331 13.8078 23.8255 13.6417 23.6638L2.81283 12.8349L13.6417 2.00603C13.7536 1.89866 13.8428 1.77005 13.9044 1.62773C13.9659 1.48542 13.9984 1.33226 13.9999 1.17723C14.0015 1.0222 13.9721 0.868417 13.9135 0.724881C13.8549 0.581344 13.7683 0.450943 13.6587 0.341315C13.549 0.231686 13.4186 0.145035 13.2751 0.0864344C13.1316 0.0278335 12.9778 -0.00153764 12.8227 3.99384e-05C12.6677 0.00161751 12.5146 0.0341128 12.3722 0.0956225C12.2299 0.157132 12.1013 0.246419 11.9939 0.358255L0.341167 12.011C0.122717 12.2296 1.13334e-06 12.5259 1.10633e-06 12.8349C1.07932e-06 13.1439 0.122717 13.4403 0.341167 13.6588L11.9939 25.3116C12.1025 25.4232 12.2324 25.512 12.3759 25.5725C12.5193 25.6331 12.6735 25.6644 12.8292 25.6644V25.6644Z"
								fill="white"
							/>
						</svg>