<svg width="24" height="24" viewBox="0 0 24 24" fill="none" xmlns="http://www.w3.org/2000/svg">
<path d="M3.59961 0H20.4004C22.3887 0 24 1.61133 24 3.59961V20.4004C24 22.3887 22.3887 24 20.4004 24H3.59961C1.61133 24 0 22.3887 0 20.4004V3.59961C0 1.61133 1.61133 0 3.59961 0Z" fill="#F5C518"/>
<path d="M4.875 15.375V8.625H3V15.375H4.875ZM8.85938 8.625L8.4375 11.7656L8.20313 10.0781L7.96875 8.625H5.625V15.375H7.21875V10.9219L7.875 15.375H9.04688L9.65625 10.8281V15.375H11.25V8.625H8.85938ZM12 15.375V8.625H14.9063C15.6094 8.625 16.125 9.14063 16.125 9.79688V14.2031C16.125 14.8594 15.6094 15.375 14.9063 15.375H12ZM14.2031 9.84375L13.7813 9.79688V14.2031C14.0156 14.2031 14.2031 14.1563 14.25 14.0625C14.3438 13.9688 14.3438 13.6875 14.3438 13.2188V10.5938V10.0313L14.2031 9.84375ZM19.6406 10.3125H19.7813C20.4375 10.3125 21 10.8281 21 11.4844V14.2031C21 14.8594 20.4375 15.375 19.7813 15.375H19.6406C19.2656 15.375 18.8906 15.1875 18.6563 14.8594L18.5625 15.2813H16.875V8.625H18.6563V10.7813C18.8906 10.5 19.2656 10.3125 19.6406 10.3125ZM19.2656 13.5938V12L19.2188 11.4844C19.1719 11.3906 19.0313 11.3438 18.9375 11.3438C18.8438 11.3438 18.7031 11.3906 18.6563 11.4844V14.1563C18.7031 14.25 18.8438 14.2969 18.9375 14.2969C19.0313 14.2969 19.2188 14.25 19.2188 14.1563L19.2656 13.5938Z" fill="black"/>
</svg>
