<svg width="24" height="24" viewBox="0 0 24 24" fill="none" xmlns="http://www.w3.org/2000/svg">
<path d="M11 0V3H13V0H11ZM4.22266 2.80859L2.80859 4.22266L4.92969 6.34375L6.34375 4.92969L4.22266 2.80859ZM19.7773 2.80859L17.6562 4.92969L19.0703 6.34375L21.1914 4.22266L19.7773 2.80859ZM12 5C10.1435 5 8.36301 5.7375 7.05025 7.05025C5.7375 8.36301 5 10.1435 5 12C5 13.8565 5.7375 15.637 7.05025 16.9497C8.36301 18.2625 10.1435 19 12 19C13.8565 19 15.637 18.2625 16.9497 16.9497C18.2625 15.637 19 13.8565 19 12C19 10.1435 18.2625 8.36301 16.9497 7.05025C15.637 5.7375 13.8565 5 12 5ZM0 11V13H3V11H0ZM21 11V13H24V11H21ZM4.92969 17.6562L2.80859 19.7773L4.22266 21.1914L6.34375 19.0703L4.92969 17.6562ZM19.0703 17.6562L17.6562 19.0703L19.7773 21.1914L21.1914 19.7773L19.0703 17.6562ZM11 21V24H13V21H11Z" fill="#0D1321"/>
</svg>
