<svg width="165" height="80" viewBox="0 0 165 80" fill="none" xmlns="http://www.w3.org/2000/svg">
<rect width="80" height="80" rx="8" fill="white"/>
<path d="M12.52 28.636H20.512L26.272 45.34L31.96 28.636H39.484V52H34.408V34.72H34.3L28.396 52H23.896L17.812 34.72H17.668V52H12.52V28.636ZM44.5122 28.636H54.4482C57.1842 28.636 59.3442 28.852 60.9282 29.284C62.5122 29.692 63.6762 30.412 64.4202 31.444C65.1642 32.476 65.5362 33.904 65.5362 35.728V45.232C65.5362 47.008 65.1882 48.388 64.4922 49.372C63.7962 50.332 62.6562 51.016 61.0722 51.424C59.4882 51.808 57.2922 52 54.4842 52H44.5122V28.636ZM54.2322 48.004C55.7682 48.004 56.9202 47.944 57.6882 47.824C58.4802 47.68 59.0442 47.416 59.3802 47.032C59.7402 46.648 59.9202 46.048 59.9202 45.232V35.62C59.9202 34.516 59.4762 33.748 58.5882 33.316C57.7242 32.86 56.3322 32.632 54.4122 32.632H50.1282V48.004H54.2322Z" fill="black"/>
<path d="M89.968 32V15.44H94.096L98.776 25.448L103.456 15.44H107.584V32H104.128V21.536L100.24 29.84H97.312L93.424 21.536V32H89.968ZM111.291 27.968V19.472C111.291 16.784 112.635 15.44 115.323 15.44H120.795C123.483 15.44 124.827 16.784 124.827 19.472V27.968C124.827 30.656 123.483 32 120.795 32H115.323C112.635 32 111.291 30.656 111.291 27.968ZM114.747 28.16C114.747 28.64 114.987 28.88 115.467 28.88H120.651C121.131 28.88 121.371 28.64 121.371 28.16V19.28C121.371 18.8 121.131 18.56 120.651 18.56H115.467C114.987 18.56 114.747 18.8 114.747 19.28V28.16ZM126.987 16.088L127.419 15.44H130.443L134.235 28.88H134.619L138.411 15.44H141.435L141.867 16.088L137.163 32H131.691L126.987 16.088ZM144.273 32V15.44H147.729V32H144.273ZM151.656 32V15.44H162.984V18.56H155.112V21.92H162.264V25.04H155.112V28.88H162.984V32H151.656ZM89.968 62V45.44H96.256C100.768 45.44 103.024 47.696 103.024 52.208V55.232C103.024 59.744 100.768 62 96.256 62H89.968ZM93.424 58.88H96.448C98.528 58.88 99.568 57.84 99.568 55.76V51.68C99.568 49.6 98.528 48.56 96.448 48.56H93.424V58.88ZM104.955 61.352L109.875 45.44H115.155L120.075 61.352L119.643 62H116.763L115.755 58.64H109.275L108.267 62H105.387L104.955 61.352ZM110.211 55.52H114.819L112.707 48.56H112.323L110.211 55.52ZM119.889 48.56V45.44H133.424V48.56H128.385V62H124.929V48.56H119.889ZM133.245 61.352L138.165 45.44H143.445L148.365 61.352L147.933 62H145.053L144.045 58.64H137.565L136.557 62H133.677L133.245 61.352ZM138.501 55.52H143.109L140.997 48.56H140.613L138.501 55.52Z" fill="white"/>
</svg>
