<svg width="24" height="24" viewBox="0 0 24 24" fill="none" xmlns="http://www.w3.org/2000/svg">
<path d="M23.25 12.0005C23.25 18.2145 18.2183 23.2505 12.013 23.2505C5.80782 23.2505 0.776093 18.2145 0.776093 12.0005C0.776093 5.78652 5.80782 0.750488 12.013 0.750488C18.2183 0.750488 23.25 5.78652 23.25 12.0005Z" fill="#001B36" stroke="#FFCC00" stroke-width="1.5"/>
<path d="M4.03479 13.6013L6.12056 11.4888L6.98135 12.3405C6.92228 11.6812 6.96871 11.1227 7.12063 10.6649C7.27622 10.2033 7.5699 9.7539 8.00169 9.31656C8.46642 8.84586 8.91747 8.5558 9.35486 8.44638C9.79225 8.33696 10.2617 8.35817 10.7632 8.51C10.7294 7.77322 10.7886 7.19065 10.9407 6.76232C11.0891 6.33031 11.3755 5.89935 11.8 5.46942C12.4257 4.83564 13.1031 4.52768 13.832 4.54552C14.5572 4.55971 15.3197 4.96244 16.1194 5.7537L19.8235 9.41881L17.5841 11.6871L14.2242 8.36264C13.9576 8.09889 13.7083 7.95479 13.4763 7.93035C13.1226 7.88083 12.8342 7.96911 12.611 8.1952C12.3475 8.46205 12.2316 8.77226 12.2631 9.12583C12.2946 9.47939 12.5232 9.86682 12.949 10.2881L15.9923 13.2993L13.7528 15.5676L10.5041 12.353C10.2449 12.0966 10.0544 11.9374 9.93256 11.8755C9.7369 11.7771 9.53609 11.7433 9.33014 11.774C9.12049 11.801 8.93699 11.8942 8.77964 12.0536C8.52349 12.313 8.4112 12.6232 8.44275 12.9841C8.47431 13.3451 8.71408 13.7472 9.16206 14.1904L12.172 17.1687L9.93259 19.4369L4.03479 13.6013Z" fill="white"/>
</svg>
