<svg width="32" height="32" viewBox="0 0 32 32" fill="none" xmlns="http://www.w3.org/2000/svg">
<g clip-path="url(#clip0_8_97)">
<path d="M11.8667 0.666656C5.70011 0.666656 0.666748 5.70002 0.666748 11.8667C0.666748 18.0333 5.70011 23.0667 11.8667 23.0667C14.6635 23.0667 17.2188 22.0235 19.1855 20.3167L19.8667 20.9979V23.0667L29.4667 32.6667L32.6667 29.4667L23.0667 19.8667H20.998L20.3167 19.1854C22.0236 17.2187 23.0667 14.6635 23.0667 11.8667C23.0667 5.70002 18.0334 0.666656 11.8667 0.666656ZM11.8667 3.86666C16.304 3.86666 19.8667 7.42943 19.8667 11.8667C19.8667 16.3039 16.304 19.8667 11.8667 19.8667C7.42952 19.8667 3.86675 16.3039 3.86675 11.8667C3.86675 7.42943 7.42952 3.86666 11.8667 3.86666Z" fill="#0D1321"/>
</g>
<defs>
<clipPath id="clip0_8_97">
<rect width="32" height="32" fill="white"/>
</clipPath>
</defs>
</svg>
